<svg xmlns="http://www.w3.org/2000/svg" viewBox="0 0 128 128"><defs><radialGradient id="a" cx="55.1" cy="38.2" r="159.3" fx="55.1" fy="38.2" gradientTransform="matrix(1.34398 0 0 .70232 -14.2 -9.5)" gradientUnits="userSpaceOnUse" spreadMethod="pad"><stop offset="0" stop-color="#fff"/><stop offset=".4" stop-color="#24b2e7"/><stop offset="1" stop-color="#3d4199"/></radialGradient></defs><path fill="url(#a)" d="M25.4 82.7c-8-3.7-15.9-9.3-20.7-17A66.4 66.4 0 0 1 10 50.5c4 6.7 10.6 11.8 17.6 15.2a114.3 114.3 0 0 0-2.3 17.1ZM114 68.5l-1.1 1.5 1.4-.1a24 24 0 0 0-.3-1.4Zm1.6-2.4.7 3.7a16.3 16.3 0 0 1 1.3 0c.4-2.9.6-5.9.5-8.8a31.6 31.6 0 0 1-2.5 5.1zM86.3 87.4a83.8 83.8 0 0 1-19.4 4c-2.4 6.5 5.6 7.1 15-.2zm22.8-39a68 68 0 0 1 5.7 14.8 28.9 28.9 0 0 0 2.8-8.2 58.3 58.3 0 0 0-5.6-18.8 25.6 25.6 0 0 1-2.8 12.1zM90.3 65.5a115.8 115.8 0 0 1 2.2 16.2c5.3-4.6 11-9 17-11 1.4-1.5 2.7-3.2 3.8-5a66.4 66.4 0 0 0-5.3-15.4 42.5 42.5 0 0 1-17.7 15.2Zm-11 4.3c0 5-2.6 8.7-8.1 15a26 26 0 0 0-3.2 4.4 79 79 0 0 0 22.5-5.6 1 1 0 0 1 .2-.1c-.3-5.7-1-11.4-2.2-17a67.5 67.5 0 0 1-9.2 3.3zm-19.3.7c5 0 9.8-.6 14.4-1.6a90.3 90.3 0 0 0 3.9-5.2c.4 1.5.7 2.8.8 4a62.1 62.1 0 0 0 9-3.3 95.8 95.8 0 0 0-6-17.8 54.3 54.3 0 0 1-22 5v19zm0 2V83a72.9 72.9 0 0 0 12.3-11.4c-3.9.7-8 1-12.3 1.2zm-32.6 11a78.3 78.3 0 0 0 21.8 5.6 56 56 0 0 0 8.8-4.9V72.6a72 72 0 0 1-28.4-6 115.8 115.8 0 0 0-2.2 17zm-.1 2.1v7.1c5.6.7 11.8 0 18-2.1a79.3 79.3 0 0 1-18-5zm-2-.8A51 51 0 0 1 4.1 68.4a93.9 93.9 0 0 0-1.1 9 32.4 32.4 0 0 0 22.3 15.1l.1-7.6zM59 30.4c-5.3 0-10.1-1.4-13.5-3.7C42 24.4 40 21.4 40 18c0-3.4 2-6.4 5.4-8.6 3.4-2.3 8.2-3.8 13.5-3.8a25 25 0 0 1 13.6 3.8c3.3 2.2 5.3 5.2 5.3 8.6 0 3.3-2 6.3-5.4 8.6A24.6 24.6 0 0 1 59 30.4Zm39.6-11.8a16.5 16.5 0 0 1 .4 1.5l3 1.8a65.2 65.2 0 0 0-3.4-3.3ZM73 7.7a15.7 15.7 0 0 1 5.6 5.6 55 55 0 0 1 18 5.5 20.2 20.2 0 0 0-1.3-3 58.7 58.7 0 0 0-17.5-9.5c-1.6.2-3.4.7-4.8 1.4ZM60 4.1a27.7 27.7 0 0 1 11 2.5 12.1 12.1 0 0 1 2.9-1.4A60.2 60.2 0 0 0 60 3.3Zm21.3 40.8a90.7 90.7 0 0 0-9.2-15.3 27 27 0 0 1-12 3.2v16.8a52.3 52.3 0 0 0 21.2-4.7Zm13.6-11.6A67.3 67.3 0 0 0 79 23a14.7 14.7 0 0 1-5 5.7A93.5 93.5 0 0 1 83 44a29 29 0 0 0 11.8-10.7Zm1-1.8a17.5 17.5 0 0 0 1.3-10 53.5 53.5 0 0 0-17.7-6c.6 1.7.6 3.6.2 5.5a69.3 69.3 0 0 1 16.2 10.5zm1.5 1.4A59.5 59.5 0 0 1 108 46.1a23 23 0 0 0 1.4-14.6c-3-4.8-5-6-9.9-8.8a19.3 19.3 0 0 1-2 10.2zm9.5 15.4a56.8 56.8 0 0 0-10.5-13.6A31 31 0 0 1 84 45.8a98.1 98.1 0 0 1 5.9 17.8 39.4 39.4 0 0 0 17-15.3zM19.4 18.6A22 22 0 0 0 19 20l-3 2a65 65 0 0 1 3.4-3.3zM45 7.7a15.8 15.8 0 0 0-5.6 5.6 54.5 54.5 0 0 0-18 5.5 18.2 18.2 0 0 1 1.4-3 58.5 58.5 0 0 1 17.5-9.5c1.5.2 3.3.7 4.7 1.4Zm13-3.6a27.6 27.6 0 0 0-11 2.5 12.4 12.4 0 0 0-2.8-1.4 60.1 60.1 0 0 1 13.8-2ZM36.7 44.9A91.6 91.6 0 0 1 46 29.6a27.1 27.1 0 0 0 12 3.1v16.9a52.4 52.4 0 0 1-21.3-4.7ZM23.1 33.3a67.3 67.3 0 0 1 16-10.5 14.8 14.8 0 0 0 5 5.7A93.4 93.4 0 0 0 35 44a29 29 0 0 1-11.8-10.7Zm-1-1.8a17.4 17.4 0 0 1-1.3-10.1 53.4 53.4 0 0 1 17.7-6 10.3 10.3 0 0 0-.1 5.5A69.3 69.3 0 0 0 22 31.5Zm-1.5 1.4A59.1 59.1 0 0 0 10 46a23.1 23.1 0 0 1-1.4-14.6c3-4.8 5-6 9.9-8.9-.3 3.6.4 7 2 10.3zM30 64.5a95.8 95.8 0 0 1 5.9-17.8 54.3 54.3 0 0 0 22 5v19c-10.3-.2-20-2.5-28-6.2zM11 48.3a57.1 57.1 0 0 1 10.5-13.6A32 32 0 0 0 34 45.8a98.1 98.1 0 0 0-6 17.8 39.5 39.5 0 0 1-17-15.3Zm-7.9 15A27.7 27.7 0 0 1 .4 55 58.6 58.6 0 0 1 6 36.2a25.6 25.6 0 0 0 3 12.1 67.3 67.3 0 0 0-5.7 14.9ZM2.5 66c-.5 2.6-1 5.4-1.3 8.2C.3 69.9 0 65.4 0 61a32.8 32.8 0 0 0 2.5 5z" transform="translate(.3 .3)"/><path fill="#5fbcd3" d="M78.6 66.4c-26 37.3-64 36.7-77 10.5a59 59 0 0 0 38.2 43.6c37.9 13.3 62-14.7 76.3-21a8.7 8.7 0 0 0-8.5-.7 64 64 0 0 1 16-9.8 15.6 15.6 0 0 0-14.7 1.3 50.9 50.9 0 0 1 17.8-10c-6-3.4-11.5-2.5-17.7 1.3 4.8-3.7 9.7-6.6 14.4-7.8-16.2-6.5-29.2 10.5-41.2 20-11.8 9.3-21.5 5.8-10.7-6.3 7.7-8.6 9.7-12.4 7.1-21.1z"/><path fill="#3771c8" d="M78.6 66.4c-26 37.3-64 36.7-77 10.5a59.3 59.3 0 0 0 10.4 23c22.8 14.5 48-3.8 66.6-33.7zm37.5 33.3a8.7 8.7 0 0 0-8.5-1c-5.7 4.5-11.8 9.2-18.5 12.8 9.7-3 18.5-12.7 26.9-11.8zM127 80.2c-6.2-3.3-11.7-2.4-18 1.4-9.3 7-19 16.9-30 22.4 17-5.6 30.4-25.8 47.7-23.9zm-3.3 8.8a15.6 15.6 0 0 0-14.7 1.3c-8.1 6-16.4 13.4-24.8 18.1C98.5 103 110.6 88 123.6 89zm-41.5 4.7c-11.8 9.4-21.5 5.9-10.7-6.2-15.6 16.5-2.7 20.1 10.7 9.1 9.6-7.6 20.2-22.3 32.3-24.2-12.1 1.1-22.6 13.7-32.3 21.4z"/><path fill="none" stroke="#025" stroke-linejoin="round" d="M79.2 66.3a94.6 94.6 0 0 1-5 6.6 83.6 83.6 0 0 1-5.2 5.7 74.2 74.2 0 0 1-5.4 4.9 66 66 0 0 1-8.4 5.7 55.7 55.7 0 0 1-8.4 3.8 47.5 47.5 0 0 1-8.3 2 41.1 41.1 0 0 1-8 .5 36.3 36.3 0 0 1-7.6-1.2 33.3 33.3 0 0 1-7-2.8 31.9 31.9 0 0 1-11-10 35.4 35.4 0 0 1-2.7-4.7l.8 3.4.3 1a59.1 59.1 0 0 0 2.5 6.9l.8 1.9.6 1.3 1 2 .7 1 1.8 3 .5.7 1.2 1.8a58.7 58.7 0 0 0 28 20.7c37.8 13.3 62-14.7 76.2-21a10 10 0 0 0-1.8-1 8.3 8.3 0 0 0-4.2-.3 10.5 10.5 0 0 0-2.4.6c5.6-4.2 10.8-8 16-10a18.5 18.5 0 0 0-4-1 15.1 15.1 0 0 0-5.5.2 15.8 15.8 0 0 0-3.4 1.3l-1.8 1A52.8 52.8 0 0 1 127.3 80a14.8 14.8 0 0 0-13.2-1 28.2 28.2 0 0 0-4.5 2.4c4.8-3.6 9.6-6.5 14.4-7.8a19 19 0 0 0-9.2-1.3h.3c-5.6.5-11 3.4-15.8 7.2a120 120 0 0 0-6.8 5.6l-1.8 1.6-.5.5a403.6 403.6 0 0 1-5 4.4l-.2.2a82.8 82.8 0 0 1-2.3 1.8 36.7 36.7 0 0 1-4.3 3 25.3 25.3 0 0 1-3.8 1.7 11.4 11.4 0 0 1-3.3.6 6.1 6.1 0 0 1-1.3 0c-2.4-.5-3.3-2.4-2-5.7a15.6 15.6 0 0 1 1-1.7 28.1 28.1 0 0 1 3-4.2c7.7-8.6 9.7-12.4 7-21z"/></svg>